<svg width="32" height="33" viewBox="0 0 32 33" fill="none" xmlns="http://www.w3.org/2000/svg">
<path d="M16 3.48438V29.4844" stroke="#FF3B30" stroke-width="2" stroke-linecap="round" stroke-linejoin="round"/>
<path d="M23 11.4844C23 10.8278 22.8707 10.1776 22.6194 9.57096C22.3681 8.96433 21.9998 8.41313 21.5355 7.94884C21.0712 7.48455 20.52 7.11625 19.9134 6.86498C19.3068 6.6137 18.6566 6.48438 18 6.48438H13.5C12.1739 6.48438 10.9021 7.01116 9.96447 7.94884C9.02678 8.88652 8.5 10.1583 8.5 11.4844C8.5 12.8105 9.02678 14.0822 9.96447 15.0199C10.9021 15.9576 12.1739 16.4844 13.5 16.4844H19C20.3261 16.4844 21.5979 17.0112 22.5355 17.9488C23.4732 18.8865 24 20.1583 24 21.4844C24 22.8105 23.4732 24.0822 22.5355 25.0199C21.5979 25.9576 20.3261 26.4844 19 26.4844H13C11.6739 26.4844 10.4021 25.9576 9.46447 25.0199C8.52678 24.0822 8 22.8105 8 21.4844" stroke="#FF3B30" stroke-width="2" stroke-linecap="round" stroke-linejoin="round"/>
</svg>
