<!DOCTYPE svg PUBLIC "-//W3C//DTD SVG 1.1//EN" "http://www.w3.org/Graphics/SVG/1.1/DTD/svg11.dtd">
<!-- Uploaded to: SVG Repo, www.svgrepo.com, Transformed by: SVG Repo Mixer Tools -->
<svg version="1.1" id="Icons" xmlns="http://www.w3.org/2000/svg" xmlns:xlink="http://www.w3.org/1999/xlink" viewBox="0 0 32 32" xml:space="preserve" width="800px" height="800px" fill="#ffffff" stroke="#ffffff">
<g id="SVGRepo_bgCarrier" stroke-width="0"/>
<g id="SVGRepo_tracerCarrier" stroke-linecap="round" stroke-linejoin="round"/>
<g id="SVGRepo_iconCarrier"> <style type="text/css"> .st0{fill:none;stroke:#000000;stroke-width:2;stroke-linecap:round;stroke-linejoin:round;stroke-miterlimit:10;} </style> <g> <path d="M31,5H1C0.4,5,0,5.4,0,6v20c0,0.6,0.4,1,1,1h30c0.6,0,1-0.4,1-1V6C32,5.4,31.6,5,31,5z M29,20c0,0.6-0.4,1-1,1 c-1.1,0-2,0.9-2,2c0,0.6-0.4,1-1,1H7c-0.6,0-1-0.4-1-1c0-1.1-0.9-2-2-2c-0.6,0-1-0.4-1-1v-8c0-0.6,0.4-1,1-1c1.1,0,2-0.9,2-2 c0-0.6,0.4-1,1-1h18c0.6,0,1,0.4,1,1c0,1.1,0.9,2,2,2c0.6,0,1,0.4,1,1V20z"/> <ellipse cx="16" cy="16" rx="4" ry="5"/> </g> </g>
</svg>